<?xml version="1.0" standalone="no"?>
<!DOCTYPE svg PUBLIC "-//W3C//DTD SVG 20010904//EN"
 "http://www.w3.org/TR/2001/REC-SVG-20010904/DTD/svg10.dtd">
<svg version="1.0" xmlns="http://www.w3.org/2000/svg"
 width="1177.000000pt" height="1333.000000pt" viewBox="0 0 1177.000000 1333.000000"
 preserveAspectRatio="xMidYMid meet">

<g transform="translate(0.000000,1333.000000) scale(0.100000,-0.100000)"
fill="#000000" stroke="none">
<path d="M2720 6080 l0 -3370 4195 0 4195 0 0 3370 0 3370 -4195 0 -4195 0 0
-3370z m8250 0 l0 -3230 -4055 0 -4055 0 0 3230 0 3230 4055 0 4055 0 0 -3230z"/>
<path d="M5976 8242 c-3 -2 -125 -5 -273 -7 -147 -1 -272 -3 -276 -4 -12 -2
-34 -61 -41 -113 -4 -26 -21 -85 -37 -130 -17 -46 -46 -143 -65 -217 -19 -73
-41 -143 -49 -154 -21 -30 -19 -48 10 -87 14 -19 25 -38 25 -43 0 -4 -20 -17
-43 -27 -38 -17 -48 -28 -75 -87 -40 -89 -49 -135 -28 -152 22 -18 20 -38 -4
-51 -23 -12 -50 -60 -50 -88 0 -11 7 -25 15 -32 8 -7 15 -16 15 -21 0 -5 -7
-9 -15 -9 -29 0 -55 -38 -55 -81 0 -31 -8 -51 -35 -86 -23 -30 -35 -57 -35
-77 0 -42 -21 -117 -60 -214 -17 -44 -29 -86 -25 -92 4 -6 20 -8 40 -4 53 10
49 -12 -9 -45 -71 -40 -95 -81 -141 -246 -20 -71 -47 -162 -60 -200 -13 -39
-29 -101 -35 -139 -6 -38 -18 -82 -26 -98 -19 -37 -12 -71 21 -92 35 -23 20
-57 -31 -72 -32 -9 -40 -16 -45 -42 -4 -18 -18 -47 -33 -66 -23 -31 -37 -75
-71 -233 -4 -15 -1 -23 8 -23 23 0 67 -40 67 -60 0 -26 -17 -34 -63 -31 -75 4
-85 -29 -32 -103 43 -61 47 -106 10 -106 -13 0 -36 5 -49 12 -21 9 -29 8 -45
-6 -30 -27 -68 -123 -91 -231 -25 -111 -58 -211 -120 -360 -42 -99 -120 -384
-120 -435 0 -53 56 -74 128 -49 23 8 36 7 54 -2 17 -9 104 -13 313 -14 318 -3
342 1 370 55 8 15 30 81 49 146 20 65 52 160 72 209 27 67 38 110 42 165 3 61
9 80 28 100 12 14 36 55 53 92 16 36 38 71 48 76 36 19 109 24 406 28 166 3
313 5 327 6 79 3 542 -11 578 -17 41 -7 45 -11 79 -79 57 -113 102 -240 114
-320 10 -64 14 -75 36 -85 21 -10 24 -17 20 -39 -13 -65 48 -239 103 -295 l38
-37 153 0 c161 0 327 15 344 31 13 13 -6 43 -31 48 -22 4 -43 30 -44 54 0 13
8 17 33 17 39 0 64 -24 91 -87 25 -56 68 -77 148 -71 47 3 64 10 85 31 25 24
26 28 15 65 -7 22 -25 56 -42 77 -33 41 -33 44 -21 97 9 38 -8 100 -93 331
-20 54 -46 142 -57 195 -20 93 -57 179 -86 204 -11 9 -22 9 -46 0 -42 -16 -57
-1 -57 57 0 46 1 48 38 57 53 13 54 47 3 167 -22 52 -50 128 -61 168 -23 83
-193 578 -210 609 -6 11 -19 24 -30 30 -11 6 -20 21 -20 33 -1 12 -7 33 -14
46 -8 14 -11 41 -9 65 4 32 -1 48 -19 71 -21 27 -29 30 -93 34 -79 4 -108 15
-103 39 3 13 18 18 72 23 42 4 71 11 77 20 16 26 9 79 -23 175 -30 86 -36 97
-65 109 -38 16 -41 32 -14 76 19 31 19 33 2 68 -22 43 -51 132 -85 262 -27
102 -53 165 -86 214 -11 17 -20 47 -20 68 0 20 -13 79 -30 130 -16 50 -33 108
-38 127 -7 32 -13 37 -69 55 -34 11 -63 25 -64 30 -1 6 14 19 34 30 42 23 51
54 32 105 -8 19 -19 55 -25 80 -7 24 -31 80 -53 125 -27 52 -42 95 -43 123 -1
23 -9 53 -17 66 -9 13 -19 41 -23 62 -7 42 -30 93 -42 95 -21 4 -323 5 -326 1z
m51 -78 l35 -26 39 18 c51 22 68 10 49 -35 -16 -39 -39 -46 -103 -31 -96 23
-129 54 -95 88 18 18 38 15 75 -14z m-400 -40 c3 -8 0 -27 -6 -40 -8 -19 -17
-25 -38 -22 -35 4 -38 19 -13 51 24 30 48 35 57 11z m663 -114 c0 -5 -4 -10
-10 -10 -5 0 -10 5 -10 10 0 6 5 10 10 10 6 0 10 -4 10 -10z m-650 -35 c7 -9
10 -18 7 -21 -10 -11 -37 5 -37 21 0 19 14 19 30 0z m473 -21 c-8 -20 -33 -17
-33 4 0 10 3 22 7 25 10 11 32 -13 26 -29z m-293 -16 c0 -19 -44 -43 -61 -32
-14 8 -11 62 4 67 20 7 57 -15 57 -35z m-150 -83 c0 -8 -7 -15 -15 -15 -8 0
-15 7 -15 15 0 8 7 15 15 15 8 0 15 -7 15 -15z m370 -40 c-7 -8 -16 -15 -21
-15 -13 0 -11 24 3 38 18 18 35 -3 18 -23z m-515 -105 c3 -5 -1 -10 -10 -10
-9 0 -13 5 -10 10 3 6 8 10 10 10 2 0 7 -4 10 -10z m789 -31 c14 -17 26 -35
26 -40 0 -17 -39 -9 -67 15 -24 20 -25 26 -14 40 19 22 25 20 55 -15z m-537
-96 c-9 -9 -20 -12 -28 -8 -9 6 -8 11 6 21 23 17 42 6 22 -13z m-138 -57 c8
-10 9 -16 1 -21 -16 -10 -50 4 -50 21 0 18 34 18 49 0z m263 2 c-9 -9 -15 -9
-24 0 -9 9 -7 12 12 12 19 0 21 -3 12 -12z m181 -23 c1 -5 -11 -12 -27 -13
-27 -3 -28 -2 -16 13 14 17 40 17 43 0z m-83 -130 c13 -16 6 -35 -15 -35 -18
0 -28 17 -21 35 7 19 20 19 36 0z m-769 -58 c-1 -12 -15 -9 -19 4 -3 6 1 10 8
8 6 -3 11 -8 11 -12z m1088 -44 c1 -13 -3 -23 -9 -23 -13 0 -24 46 -15 67 7
17 8 16 15 -2 5 -11 9 -30 9 -42z m-695 11 c22 -9 20 -24 -3 -24 -21 0 -34 13
-24 24 8 7 8 7 27 0z m-211 -51 c11 -10 -24 -43 -45 -43 -20 0 -24 20 -6 38
13 13 41 16 51 5z m820 -82 c93 -55 99 -56 147 -26 23 15 45 24 48 20 4 -3 -2
-23 -13 -43 -16 -28 -30 -39 -64 -49 -24 -7 -49 -18 -57 -24 -36 -30 -254 48
-262 94 -5 28 17 47 54 47 18 0 36 5 39 10 11 18 40 10 108 -29z m-673 -73
c34 -46 36 -64 16 -112 -12 -30 -21 -35 -68 -45 -38 -9 -63 -22 -90 -48 -21
-21 -38 -44 -38 -52 0 -8 12 -32 26 -53 21 -30 24 -41 15 -52 -22 -26 -62 -29
-85 -7 -12 12 -32 21 -43 21 -31 0 -53 10 -53 25 0 17 52 29 81 20 21 -7 21
-6 5 16 -22 33 -20 55 10 95 34 43 83 74 121 74 17 0 37 8 46 18 15 16 15 21
0 63 -30 83 6 107 57 37z m-160 -47 c0 -12 -29 -35 -36 -28 -11 10 5 37 21 37
8 0 15 -4 15 -9z m930 -56 c0 -9 -10 -15 -23 -15 -31 0 -38 9 -26 31 8 15 14
17 29 9 11 -6 20 -17 20 -25z m287 -29 c-4 -9 -11 -16 -17 -16 -11 0 -14 33
-3 43 11 11 26 -10 20 -27z m-1419 12 c20 -20 13 -28 -13 -16 -14 6 -25 15
-25 20 0 12 24 10 38 -4z m42 -73 c0 -22 -60 -85 -80 -85 -16 0 -30 18 -30 40
0 4 13 13 29 20 16 6 37 20 47 31 18 20 34 17 34 -6z m1320 10 c-7 -9 -15 -13
-17 -11 -7 7 7 26 19 26 6 0 6 -6 -2 -15z m-646 -147 c8 -13 22 -50 31 -83 28
-100 41 -115 98 -115 53 0 87 -13 87 -34 0 -7 -18 -25 -40 -40 -38 -25 -40
-29 -40 -76 0 -63 20 -113 55 -136 20 -13 26 -23 22 -43 -4 -20 5 -36 39 -74
24 -27 44 -57 44 -67 0 -17 -2 -17 -31 -3 -40 20 -51 7 -32 -39 17 -43 32 -47
58 -18 17 19 18 19 36 -4 23 -29 23 -43 4 -89 -26 -62 -19 -129 20 -213 27
-56 40 -75 53 -72 10 2 18 14 20 30 5 40 22 49 60 31 34 -16 92 -76 92 -94 0
-7 -13 -9 -32 -7 -24 4 -49 -3 -91 -25 -51 -27 -71 -31 -180 -38 -67 -4 -153
-13 -191 -19 -72 -12 -93 -11 -186 15 -45 12 -69 13 -130 5 -91 -13 -152 1
-183 42 l-21 28 32 112 c17 62 34 133 38 158 4 25 22 72 40 105 18 33 44 101
57 151 14 49 31 103 39 120 15 28 39 119 74 274 9 41 30 112 46 158 29 81 30
82 64 82 24 0 38 -6 48 -22z m400 -79 c-33 -49 -44 -56 -55 -38 -20 32 -9 64
33 101 l43 37 3 -31 c2 -20 -5 -43 -24 -69z m240 57 c9 -14 6 -21 -13 -37 -27
-22 -40 -21 -55 5 -9 14 -6 21 13 37 27 22 40 21 55 -5z m-416 -104 c2 -7 -3
-12 -12 -12 -9 0 -16 7 -16 16 0 17 22 14 28 -4z m252 -12 c0 -5 -16 -10 -36
-10 -21 0 -33 4 -29 10 3 6 19 10 36 10 16 0 29 -4 29 -10z m299 -186 c8 -8
-30 -34 -50 -34 -19 0 -33 26 -23 42 6 10 62 4 73 -8z m-339 -96 c0 -31 -20
-37 -40 -13 -10 12 -9 20 5 41 13 21 19 24 26 13 5 -8 9 -26 9 -41z m71 -87
c24 -30 22 -85 -5 -126 -22 -33 -46 -32 -46 0 0 14 -9 44 -20 65 -19 37 -19
43 -5 69 18 35 45 32 76 -8z m123 -97 c3 -9 6 -27 6 -41 0 -32 -34 -28 -38 5
-6 44 18 71 32 36z m418 -111 c16 -14 16 -16 -4 -32 -17 -15 -19 -21 -9 -39 6
-12 24 -28 39 -36 20 -11 23 -16 12 -20 -203 -72 -239 -82 -259 -69 -9 6 -40
14 -69 18 -29 4 -52 10 -52 15 0 4 19 20 42 35 39 26 40 28 23 41 -10 8 -27
14 -37 14 -23 0 -23 5 3 47 17 27 27 33 47 31 16 -2 31 -13 39 -28 17 -34 41
-50 78 -50 39 0 55 16 55 55 0 42 16 56 49 44 14 -6 34 -17 43 -26z m-1434 6
c-5 -33 -34 -47 -54 -27 -24 24 -11 48 26 48 26 0 31 -3 28 -21z m-670 -98
c-4 -20 -35 -26 -54 -10 -13 11 -13 14 7 25 28 14 51 7 47 -15z m1729 13 c20
-6 22 -12 21 -70 -1 -61 -2 -65 -34 -85 -58 -35 -93 -35 -152 2 -77 48 -70 74
13 44 53 -19 62 -18 84 4 17 17 18 24 9 49 -20 52 1 71 59 56z m-1282 -64 c3
-5 -8 -16 -25 -25 -28 -15 -30 -14 -30 3 0 10 3 22 7 25 10 10 41 8 48 -3z
m1403 -91 c-18 -7 -33 -7 -45 0 -14 8 -9 10 27 10 42 -1 43 -1 18 -10z m-1588
-105 c0 -8 -4 -12 -10 -9 -5 3 -10 10 -10 16 0 5 5 9 10 9 6 0 10 -7 10 -16z
m1780 7 c0 -18 -17 -20 -36 -6 -18 14 -18 14 9 15 15 0 27 -4 27 -9z m-220
-27 c0 -8 -4 -14 -10 -14 -5 0 -10 9 -10 21 0 11 5 17 10 14 6 -3 10 -13 10
-21z m104 -17 c38 -28 -15 -97 -61 -80 -10 4 -28 13 -41 21 -19 12 -20 17 -10
30 13 15 64 41 84 42 5 0 18 -6 28 -13z m51 -118 c0 -8 -10 -15 -22 -17 -20
-3 -23 1 -23 29 0 30 1 31 23 17 12 -9 22 -22 22 -29z m-1575 -89 c0 -5 -4
-10 -9 -10 -6 0 -13 5 -16 10 -3 6 1 10 9 10 9 0 16 -4 16 -10z m1770 -10 c0
-5 -9 -10 -21 -10 -11 0 -17 5 -14 10 3 6 13 10 21 10 8 0 14 -4 14 -10z
m-760 -36 c0 -16 -16 -19 -25 -4 -8 13 4 32 16 25 5 -4 9 -13 9 -21z m450 -33
c0 -14 -18 -23 -30 -16 -6 4 -8 11 -5 16 8 12 35 12 35 0z m-1557 -37 c11 -11
-5 -34 -24 -34 -21 0 -26 25 -6 33 17 8 23 8 30 1z m1887 -24 c0 -5 -2 -10 -4
-10 -3 0 -8 5 -11 10 -3 6 -1 10 4 10 6 0 11 -4 11 -10z m-260 -30 c0 -5 -4
-10 -10 -10 -5 0 -10 5 -10 10 0 6 5 10 10 10 6 0 10 -4 10 -10z m-192 -172
c22 -22 12 -39 -33 -59 -42 -19 -85 -19 -85 0 0 11 29 36 65 54 37 20 38 20
53 5z m188 -23 c7 -29 -1 -55 -16 -55 -6 0 -13 7 -16 15 -8 20 4 65 16 65 5 0
12 -11 16 -25z m-1432 -4 c7 -11 -18 -21 -55 -21 -19 0 -29 5 -29 15 0 11 11
15 39 15 22 0 42 -4 45 -9z m740 -217 c31 -31 12 -94 -29 -94 -29 0 -55 24
-55 51 0 51 51 77 84 43z m433 -98 c-8 -19 -37 -21 -37 -3 0 7 5 18 12 25 15
15 33 -1 25 -22z m641 -28 c4 -33 -22 -56 -43 -38 -19 16 -19 29 2 52 21 24
37 18 41 -14z m-2207 -221 c-13 -13 -26 -3 -16 12 3 6 11 8 17 5 6 -4 6 -10
-1 -17z m1815 -8 c3 -6 2 -15 -2 -19 -12 -12 -38 5 -30 19 9 14 23 14 32 0z
m-2546 -260 c0 -5 -4 -9 -10 -9 -5 0 -10 7 -10 16 0 8 5 12 10 9 6 -3 10 -10
10 -16z m480 -145 c0 -8 -5 -12 -10 -9 -6 4 -8 11 -5 16 9 14 15 11 15 -7z
m2600 -12 c20 -16 22 -23 14 -57 -20 -82 -94 -58 -94 30 0 43 1 45 29 45 16 0
39 -8 51 -18z m170 -7 c11 -13 8 -15 -14 -15 -25 0 -33 10 -19 23 10 11 19 8
33 -8z"/>
<path d="M9028 8205 c-4 -4 -52 -7 -107 -6 -86 1 -101 -1 -110 -16 -10 -17
-12 -17 -25 0 -14 18 -80 24 -90 8 -4 -5 -19 -4 -38 2 -24 9 -32 9 -35 0 -3
-7 -17 -13 -32 -13 -15 0 -33 6 -40 13 -10 10 -15 8 -27 -7 -19 -27 -18 -53 4
-65 9 -6 11 -11 5 -11 -8 0 -13 -13 -13 -30 0 -24 4 -30 21 -30 15 0 19 5 15
15 -10 26 3 42 30 37 26 -5 30 -22 12 -52 -16 -24 -3 -39 38 -44 43 -6 64 -16
64 -32 0 -16 -35 -54 -49 -54 -5 0 -17 -7 -25 -16 -9 -8 -20 -12 -26 -9 -15 9
-12 25 4 25 8 0 18 9 21 20 3 11 11 20 16 20 5 0 9 7 9 16 0 11 -8 14 -32 12
-25 -2 -32 -7 -30 -20 2 -13 -4 -18 -21 -18 -21 0 -23 4 -19 26 5 26 -13 48
-30 38 -12 -8 -10 -52 3 -60 6 -3 8 -17 5 -30 -4 -13 -1 -33 6 -43 10 -16 9
-23 -3 -38 -12 -14 -16 -53 -18 -181 -3 -174 1 -192 45 -192 19 0 24 -5 24
-24 0 -13 -7 -29 -15 -36 -13 -10 -15 -9 -15 9 0 26 -16 27 -30 2 -13 -25 -13
-28 -10 -413 1 -263 4 -329 15 -338 21 -17 308 -8 329 10 14 11 19 10 29 -5
12 -16 34 -17 290 -12 l277 6 83 39 c81 39 177 119 177 148 0 8 4 14 8 14 15
0 41 57 35 78 -4 16 -1 22 10 22 21 0 33 40 16 51 -7 4 -25 5 -40 2 -30 -6
-47 20 -28 43 17 21 35 17 54 -12 27 -42 40 -16 37 83 -2 94 -26 164 -64 184
-17 9 -18 13 -7 20 12 8 11 11 -3 20 -10 5 -18 19 -18 29 0 13 -7 20 -19 20
-11 0 -23 5 -26 10 -3 6 1 10 10 10 12 0 15 6 10 19 -4 15 0 20 16 23 21 3 41
34 91 140 11 25 10 112 -3 145 -7 19 -7 29 0 31 43 14 -80 287 -129 287 -8 0
-23 10 -33 23 -10 12 -25 22 -33 22 -8 0 -14 5 -14 10 0 6 -5 10 -11 10 -8 0
-8 -5 1 -15 10 -12 8 -21 -14 -50 -15 -19 -36 -39 -46 -45 -23 -12 -27 -68 -8
-100 19 -30 4 -33 -33 -8 -23 16 -34 31 -34 48 0 19 -4 24 -20 22 -16 -3 -18
-1 -7 9 17 18 15 39 -3 39 -20 0 -19 17 1 28 8 5 21 20 28 33 9 19 20 24 50
26 48 1 68 19 43 38 -18 13 -51 7 -98 -16 -20 -9 -29 -2 -29 24 0 14 -5 18
-20 14 -11 -3 -23 -1 -26 4 -8 13 -174 12 -174 -2 0 -6 -5 -7 -12 -2 -7 4 -26
8 -43 9 -16 0 -44 4 -60 8 -17 4 -33 4 -37 1z m-305 -31 c3 -3 -8 -18 -24 -32
-23 -18 -29 -31 -25 -47 4 -14 0 -28 -9 -35 -13 -11 -15 -8 -15 14 0 15 -7 29
-15 32 -24 9 -19 37 5 29 14 -4 20 -2 20 8 0 19 50 44 63 31z m207 -20 c0 -11
-5 -14 -16 -10 -9 3 -20 6 -25 6 -5 0 -9 5 -9 10 0 6 11 10 25 10 16 0 25 -6
25 -16z m430 -24 c17 0 30 -4 30 -8 0 -5 -17 -6 -37 -3 -27 5 -39 12 -41 26
-2 18 -2 19 8 3 6 -11 23 -18 40 -18z m-325 10 c3 -5 1 -10 -4 -10 -6 0 -11 5
-11 10 0 6 2 10 4 10 3 0 8 -4 11 -10z m-50 -10 c3 -5 -1 -10 -9 -10 -9 0 -16
5 -16 10 0 6 4 10 9 10 6 0 13 -4 16 -10z m155 -5 c20 6 28 -9 10 -20 -6 -4
-8 -11 -4 -16 3 -5 0 -17 -7 -25 -10 -13 -9 -16 10 -21 20 -5 22 -10 16 -42
-4 -20 -9 -38 -11 -41 -9 -8 -22 23 -17 37 3 8 -4 28 -16 44 -16 22 -19 34
-12 47 7 12 5 22 -7 37 -16 18 -16 19 0 7 10 -8 26 -11 38 -7z m100 -23 c0
-14 -39 -46 -47 -39 -3 4 2 16 12 27 19 21 35 26 35 12z m30 -69 c-8 -3 -22
-11 -30 -17 -13 -10 -13 -9 -1 7 7 9 21 17 30 16 13 0 14 -1 1 -6z m-519 -16
c-1 -12 -15 -9 -19 4 -3 6 1 10 8 8 6 -3 11 -8 11 -12z m96 -33 c-9 -10 -38
16 -31 28 4 6 13 4 22 -6 9 -8 13 -19 9 -22z m811 -32 c2 -13 -5 -25 -18 -32
-13 -7 -19 -17 -16 -26 8 -20 -11 -54 -28 -54 -8 0 -13 8 -11 18 13 62 17 72
30 72 9 0 15 10 15 26 0 31 23 28 28 -4z m-733 8 c3 -6 -1 -7 -9 -4 -18 7 -21
14 -7 14 6 0 13 -4 16 -10z m282 -6 c-3 -3 -12 -4 -19 -1 -8 3 -5 6 6 6 11 1
17 -2 13 -5z m204 -62 c35 -14 76 -64 90 -111 18 -60 -9 -131 -64 -166 -40
-28 -44 -28 -202 -29 -112 -1 -167 -5 -184 -15 -16 -9 -26 -10 -30 -3 -4 6
-45 11 -94 11 -48 0 -95 5 -105 10 -15 8 -17 27 -18 138 0 145 -7 168 -36 132
l-19 -24 7 25 c3 14 7 25 8 26 0 0 17 6 36 12 43 13 573 8 611 -6z m293 -13
c3 -17 3 -36 -1 -41 -9 -15 -34 37 -27 56 10 25 21 19 28 -15z m-994 -59 c13
-8 13 -10 -2 -10 -9 0 -20 5 -23 10 -8 13 5 13 25 0z m-40 -60 c0 -5 -4 -10
-10 -10 -5 0 -10 5 -10 10 0 6 5 10 10 10 6 0 10 -4 10 -10z m90 -114 c0 -7
-6 -19 -14 -25 -11 -9 -15 -8 -20 5 -4 10 -1 21 6 26 19 12 28 10 28 -6z m138
-107 c43 2 41 -13 -5 -27 -40 -12 -48 -10 -64 20 -10 18 -9 19 13 12 12 -4 38
-6 56 -5z m728 -36 c-10 -10 -19 5 -10 18 6 11 8 11 12 0 2 -7 1 -15 -2 -18z
m-799 -65 c-3 -7 -5 -2 -5 12 0 14 2 19 5 13 2 -7 2 -19 0 -25z m143 17 c-7
-9 -15 -13 -17 -11 -7 7 7 26 19 26 6 0 6 -6 -2 -15z m-300 -15 c0 -5 -4 -10
-10 -10 -5 0 -10 5 -10 10 0 6 5 10 10 10 6 0 10 -4 10 -10z m253 -34 c-10
-13 -22 -22 -26 -19 -9 6 21 43 35 43 5 0 1 -11 -9 -24z m83 -30 c3 -8 1 -24
-5 -35 -10 -18 -15 -19 -36 -9 -24 11 -33 37 -18 51 12 13 54 7 59 -7z m623
-31 c-8 -8 -99 7 -99 16 0 4 16 5 35 2 25 -4 35 -2 35 8 0 10 4 9 17 -4 9 -9
14 -19 12 -22z m-324 -45 c3 -5 14 -10 23 -10 47 0 99 -26 148 -72 43 -42 51
-55 44 -72 -4 -12 -13 -39 -19 -61 -6 -25 -26 -56 -51 -80 -37 -36 -47 -41
-103 -45 -55 -4 -62 -8 -68 -30 -6 -24 -7 -24 -14 -5 -5 11 -12 22 -16 25 -4
3 -101 6 -216 8 -164 3 -210 6 -219 17 -14 19 -11 292 4 307 5 5 41 9 79 8
108 -2 127 -2 148 -1 11 0 52 -3 90 -7 70 -8 145 2 145 19 0 12 17 11 25 -1z
m-705 -95 c-7 -9 -15 -13 -17 -11 -7 7 7 26 19 26 6 0 6 -6 -2 -15z m1140 6
c0 -16 -28 -20 -40 -5 -10 12 -8 14 14 14 14 0 26 -4 26 -9z m-1070 -30 c0
-15 -38 -56 -45 -49 -8 8 23 58 36 58 5 0 9 -4 9 -9z m-84 -117 c-25 -18 -46
-18 -46 0 0 8 12 16 28 18 36 5 41 -1 18 -18z m994 -94 c0 -5 -2 -10 -4 -10
-3 0 -8 5 -11 10 -3 6 -1 10 4 10 6 0 11 -4 11 -10z m-85 -12 c33 -15 32 -25
-5 -30 -33 -5 -45 4 -36 27 7 18 8 18 41 3z m-831 -25 c-9 -36 -12 -39 -20
-19 -7 20 1 46 16 46 6 0 8 -11 4 -27z m1031 -3 c3 -5 -3 -10 -15 -10 -12 0
-18 5 -15 10 3 6 10 10 15 10 5 0 12 -4 15 -10z m-1098 -16 c-3 -3 -12 -4 -19
-1 -8 3 -5 6 6 6 11 1 17 -2 13 -5z m153 -4 c0 -5 -9 -10 -20 -10 -11 0 -20 5
-20 10 0 6 9 10 20 10 11 0 20 -4 20 -10z m904 -21 c-3 -5 -10 -7 -15 -3 -5 3
-7 10 -3 15 3 5 10 7 15 3 5 -3 7 -10 3 -15z m-794 -13 c0 -2 -7 -6 -15 -10
-8 -3 -15 -1 -15 4 0 6 7 10 15 10 8 0 15 -2 15 -4z m421 -29 c-10 -9 -11 -8
-5 6 3 10 9 15 12 12 3 -3 0 -11 -7 -18z m-21 -93 c0 -16 -16 -19 -25 -4 -8
13 4 32 16 25 5 -4 9 -13 9 -21z m-437 10 c11 -11 -5 -34 -24 -34 -18 0 -26
20 -12 33 8 9 28 9 36 1z m197 2 c0 -3 -4 -8 -10 -11 -5 -3 -10 -1 -10 4 0 6
5 11 10 11 6 0 10 -2 10 -4z m-345 -17 c11 -17 -1 -21 -15 -4 -8 9 -8 15 -2
15 6 0 14 -5 17 -11z m215 -25 c0 -8 -4 -12 -10 -9 -5 3 -10 10 -10 16 0 5 5
9 10 9 6 0 10 -7 10 -16z"/>
<path d="M9492 8081 c7 -9 13 -17 14 -19 4 -7 44 19 44 28 0 5 -16 9 -35 8
-30 -1 -33 -3 -23 -17z"/>
<path d="M8878 6162 l-448 -2 -5 -23 c-3 -12 -4 -76 -3 -142 l3 -120 83 -2
c45 0 82 3 82 8 0 5 7 9 15 9 8 0 15 -4 15 -10 0 -12 201 -12 240 -1 14 4 35
3 48 -2 18 -8 27 -6 47 13 25 24 55 22 55 -4 0 -21 921 -24 939 -3 15 19 16
229 1 256 -10 21 -18 21 -304 21 -161 -1 -299 1 -307 2 -8 2 -215 2 -461 0z
m650 -65 c2 -11 -3 -17 -16 -17 -20 0 -36 23 -24 34 11 12 37 1 40 -17z m-643
-47 c-3 -5 -10 -10 -16 -10 -5 0 -9 5 -9 10 0 6 7 10 16 10 8 0 12 -4 9 -10z
m53 -42 c-6 -17 -36 -34 -45 -24 -4 4 1 14 11 22 24 17 39 18 34 2z m116 -5
c9 -22 -10 -41 -25 -26 -13 13 -5 43 10 43 5 0 12 -8 15 -17z m-374 -13 c0 -5
-2 -10 -4 -10 -3 0 -8 5 -11 10 -3 6 -1 10 4 10 6 0 11 -4 11 -10z m460 1 c0
-12 -20 -25 -27 -18 -7 7 6 27 18 27 5 0 9 -4 9 -9z m85 -6 c-21 -17 -37 -15
-43 3 -2 8 8 12 30 12 31 -1 32 -1 13 -15z"/>
</g>
</svg>
